<svg width="192" height="171" viewBox="0 0 192 171" fill="none" xmlns="http://www.w3.org/2000/svg">
<path d="M70.0045 41.6915C70.0045 41.6915 64.2404 41.3712 64.4406 47.2905C64.6409 53.2123 66.6382 55.4223 70.0045 55.2196C73.3709 55.0193 76.6822 46.3894 76.6822 46.3894L70.0045 41.6915Z" fill="white"/>
<path d="M69.6024 55.6004C68.2858 55.6004 67.1921 55.2124 66.3511 54.4465C64.9395 53.1601 64.1936 50.8224 64.0735 47.3033C64.0109 45.4237 64.519 43.9445 65.5802 42.9033C67.3272 41.1963 69.9177 41.319 70.0278 41.324C70.0954 41.329 70.1605 41.3515 70.2181 41.3916L76.8957 46.0895C77.0334 46.1846 77.0884 46.3648 77.0259 46.5199C77.0184 46.5425 76.1749 48.73 74.926 50.91C73.204 53.9209 71.5571 55.4952 70.0278 55.5879C69.8827 55.5954 69.7425 55.6004 69.6024 55.6004ZM69.8677 42.0548C69.3646 42.0548 67.4048 42.1424 66.0908 43.4314C65.1823 44.3224 64.7518 45.6164 64.8094 47.2783C64.9195 50.5921 65.5877 52.7571 66.8467 53.9034C67.6351 54.6217 68.6613 54.9346 69.9853 54.8545C72.4581 54.7043 75.2363 49.0253 76.2375 46.5225L69.8877 42.0548C69.8802 42.0548 69.8727 42.0548 69.8677 42.0548Z" fill="black"/>
<path d="M65.9246 48.8279C65.7218 48.8279 65.5591 48.6653 65.5566 48.465C65.5566 48.3699 65.5541 46.1248 67.1334 44.5981C68.1271 43.637 69.5112 43.184 71.2457 43.2565C71.4484 43.2666 71.6061 43.4368 71.5986 43.6395C71.5886 43.8422 71.4184 43.9974 71.2156 43.9899C69.6914 43.9273 68.4925 44.3078 67.649 45.1212C66.295 46.4252 66.29 48.4375 66.29 48.46C66.2925 48.6602 66.1298 48.8279 65.9271 48.8279C65.9246 48.8279 65.9246 48.8279 65.9246 48.8279Z" fill="black"/>
<path d="M119.678 40.6954C119.678 40.6954 125.442 40.3751 125.242 46.2944C125.042 52.2162 123.042 54.4262 119.678 54.226C116.312 54.0232 112.998 45.3933 112.998 45.3933L119.678 40.6954Z" fill="white"/>
<path d="M120.082 54.6033C119.942 54.6033 119.799 54.5983 119.654 54.5908C118.127 54.4982 116.48 52.9239 114.758 49.9129C113.509 47.7329 112.666 45.5454 112.656 45.5229C112.598 45.3652 112.651 45.1875 112.789 45.0924L119.466 40.3945C119.521 40.3545 119.589 40.3319 119.656 40.3269C119.767 40.3219 122.357 40.1993 124.104 41.9062C125.165 42.9474 125.673 44.4266 125.608 46.3063C125.491 49.8278 124.745 52.163 123.333 53.4495C122.49 54.2154 121.398 54.6033 120.082 54.6033ZM113.447 45.5254C114.448 48.0308 117.224 53.7098 119.699 53.8574C121.02 53.9375 122.047 53.6247 122.838 52.9064C124.096 51.76 124.762 49.5951 124.875 46.2812C124.932 44.6168 124.499 43.3204 123.588 42.4318C122.249 41.1203 120.262 41.0553 119.797 41.0578L113.447 45.5254Z" fill="black"/>
<path d="M123.758 47.8314C123.758 47.8314 123.758 47.8314 123.756 47.8314C123.553 47.8289 123.39 47.6662 123.393 47.4635C123.393 47.4384 123.385 45.4286 122.036 44.1246C121.19 43.3112 119.991 42.9308 118.467 42.9959C118.264 43.0034 118.094 42.8457 118.084 42.6429C118.077 42.4402 118.234 42.27 118.437 42.26C120.172 42.1899 121.556 42.6404 122.549 43.6015C124.129 45.1308 124.126 47.3734 124.126 47.4685C124.124 47.6687 123.961 47.8314 123.758 47.8314Z" fill="black"/>
<path d="M113.779 87.0619V70.2051H79.3945V87.0619L97.5904 92.816L113.779 87.0619Z" fill="white"/>
<path d="M97.5892 93.1837C97.5516 93.1837 97.5141 93.1762 97.4791 93.1662L79.2807 87.4121C79.1305 87.3645 79.0254 87.2219 79.0254 87.0617V70.2048C79.0254 70.0021 79.1906 69.8369 79.3933 69.8369H113.778C113.98 69.8369 114.146 70.0021 114.146 70.2048V87.0617C114.146 87.2169 114.048 87.3545 113.9 87.4071L97.7118 93.1612C97.6718 93.1762 97.6317 93.1837 97.5892 93.1837ZM79.7587 86.7939L97.5817 92.4278L113.412 86.8039V70.5703H79.7587V86.7939Z" fill="black"/>
<path d="M71.3254 46.1521C70.9775 44.0622 70.069 42.135 69.4833 40.0225C67.8189 34.0157 66.3447 26.6847 68.8251 20.7004C68.8251 20.7004 65.2109 5.31272 90.2321 3.70838C90.2321 3.70838 90.8178 -1.37495 96.7471 1.56843C102.674 4.5118 102.541 8.79171 108.428 9.99559C114.315 11.1995 120.151 16.7058 120.512 23.386C120.87 30.0661 120.201 36.8889 119.801 39.2992C119.01 44.0396 118.662 47.9441 119.708 52.6595C120.151 54.6568 120.387 56.7142 120.357 58.764C120.269 64.5782 117.776 69.8818 113.484 73.7938C110.941 76.1114 107.94 77.891 104.814 79.3026C104.814 79.3026 81.8024 85.3245 74.6768 72.68C74.3314 72.0668 73.598 71.5137 73.1725 70.933C71.9937 69.3212 71.1052 67.4916 70.5095 65.5869C69.6185 62.7336 69.4132 59.7051 69.7561 56.7417C70.064 54.0561 71.2053 51.338 71.4355 48.5698C71.5081 47.7289 71.4556 46.928 71.3254 46.1521Z" fill="black"/>
<path d="M92.8938 81.1021C92.7336 81.1021 92.5734 81.0996 92.4132 81.0996C88.5113 81.0546 85.0948 80.4789 82.2591 79.3902C78.6825 78.0186 76.0244 75.8186 74.3575 72.8602C74.1823 72.5523 73.872 72.2344 73.5741 71.9291C73.3288 71.6788 73.0735 71.4185 72.8758 71.1482C71.702 69.5439 70.7884 67.7093 70.1602 65.6944C69.2842 62.8937 69.0264 59.8678 69.3893 56.6991C69.5395 55.4051 69.8799 54.0911 70.2103 52.8222C70.5732 51.4206 70.9511 49.9689 71.0712 48.5373C71.1338 47.7864 71.0988 47.0255 70.9636 46.2121C70.7534 44.9607 70.3429 43.7818 69.9099 42.5304C69.6371 41.7545 69.3593 40.9486 69.129 40.1201C68.3982 37.4796 67.5222 33.9881 67.2343 30.3814C66.929 26.5946 67.3244 23.4134 68.4407 20.6653C68.3731 20.3124 68.1979 19.2136 68.3156 17.7144C68.4432 16.06 68.9713 13.5847 70.7509 11.1844C72.2851 9.11704 74.4977 7.42009 77.3334 6.14363C80.6673 4.6419 84.9021 3.70583 89.9229 3.36044C90.0555 2.74973 90.491 1.39068 91.7725 0.694877C93.054 -0.000920683 94.7834 0.181789 96.9109 1.238C99.6565 2.60207 101.148 4.26397 102.465 5.73065C104.039 7.48517 105.398 9.00191 108.502 9.63513C114.286 10.819 120.495 16.2778 120.878 23.3659C121.224 29.8083 120.623 36.5936 120.163 39.3567C119.339 44.2974 119.059 48.0442 120.067 52.5794C120.533 54.6793 120.756 56.7617 120.723 58.7665C120.636 64.6007 118.15 70.0344 113.73 74.064C111.367 76.2165 108.502 78.0386 104.968 79.6354C104.948 79.6454 104.928 79.6505 104.908 79.6555C104.85 79.6705 99.3086 81.1021 92.8938 81.1021ZM93.5095 1.01524C92.9864 1.01524 92.5259 1.12287 92.1254 1.33812C90.8139 2.04643 90.5961 3.73336 90.5936 3.75088C90.5736 3.92608 90.431 4.06374 90.2533 4.07375C80.9751 4.66944 74.6128 7.20985 71.3391 11.6224C68.1329 15.9449 69.1691 20.5702 69.1816 20.6152C69.1991 20.6903 69.1916 20.7679 69.1616 20.8405C66.7137 26.7523 68.2355 34.1432 69.8348 39.9224C70.0576 40.7308 70.3354 41.5242 70.6007 42.2901C71.0287 43.514 71.4667 44.7805 71.687 46.092C71.8321 46.9655 71.8697 47.7864 71.8021 48.5998C71.6769 50.0915 71.2915 51.5732 70.9211 53.0074C70.5832 54.3114 70.2628 55.5403 70.1202 56.7817C69.7672 59.8502 70.015 62.7736 70.861 65.4767C71.4642 67.4139 72.3427 69.1759 73.469 70.7152C73.6367 70.9455 73.8594 71.1732 74.0972 71.416C74.4301 71.7564 74.7755 72.1068 74.9983 72.4997C78.5924 78.8771 86.4564 80.2962 92.4207 80.3663C98.7004 80.4364 104.242 79.0698 104.692 78.9547C108.141 77.3929 110.937 75.6158 113.235 73.5209C117.505 69.6315 119.905 64.3879 119.99 58.7565C120.02 56.8067 119.805 54.7819 119.349 52.7371C118.315 48.0867 118.598 44.2649 119.437 39.2366C119.892 36.5035 120.488 29.7882 120.143 23.4059C119.78 16.6707 113.865 11.4823 108.354 10.356C105.013 9.67268 103.508 7.99575 101.917 6.22122C100.583 4.73451 99.2035 3.19525 96.583 1.89626C95.4017 1.30808 94.373 1.01524 93.5095 1.01524Z" fill="black"/>
<path d="M107.889 16.5498C107.889 16.5498 99.5946 16.8176 90.4966 20.6996C81.3962 24.579 79.6592 25.3824 75.109 23.9107C75.109 23.9107 72.4534 28.959 72.979 41.6861C73.5046 54.4157 72.969 59.394 80.1923 55.2317C87.4181 51.0694 89.558 49.0621 96.5836 49.4651C103.607 49.8655 109.093 51.7827 112.437 54.2355C115.783 56.6884 117.79 51.5725 117.387 46.0361C116.987 40.4998 117.387 33.0062 114.444 28.8589C111.501 24.7117 109.093 21.5005 107.889 16.5498Z" fill="white"/>
<path d="M76.3068 57.0366C75.8462 57.0366 75.4458 56.939 75.0929 56.7413C73.1206 55.65 72.9829 51.8256 72.7352 44.8877C72.6976 43.8715 72.6601 42.8228 72.615 41.7015C72.3422 35.0889 72.9404 30.5737 73.491 27.9507C74.0917 25.0799 74.76 23.7935 74.7875 23.7384C74.8701 23.5807 75.0553 23.5056 75.2255 23.5607C76.5896 24.0037 77.6808 24.239 78.8096 24.239C81.2649 24.239 83.8905 23.1177 89.8823 20.5622L90.3529 20.362C99.4108 16.4976 107.795 16.1872 107.878 16.1847C108.053 16.1797 108.206 16.2949 108.248 16.465C109.375 21.0929 111.547 24.1514 114.3 28.0208C114.448 28.2285 114.596 28.4363 114.746 28.6465C117.159 32.0454 117.381 37.5843 117.577 42.4674C117.629 43.7163 117.677 44.8977 117.757 46.0114C118.065 50.2638 117.006 53.938 115.184 54.9442C114.561 55.2896 113.539 55.4973 112.223 54.5312C108.644 51.9082 102.937 50.1937 96.5625 49.8308C90.6282 49.4904 88.2805 50.8845 83.1321 53.9355C82.3136 54.4186 81.3851 54.9692 80.3789 55.5499C78.6419 56.551 77.3279 57.0366 76.3068 57.0366ZM75.3106 24.3591C74.795 25.5705 72.9003 30.834 73.3459 41.6715C73.3934 42.7953 73.431 43.8465 73.4685 44.8626C73.6913 51.0923 73.8389 55.2095 75.4483 56.1005C76.3193 56.5836 77.7684 56.2081 80.011 54.9167C81.0172 54.336 81.9407 53.7879 82.7567 53.3048C87.8775 50.2713 90.448 48.7471 96.605 49.1C100.004 49.2952 103.165 49.8433 106.001 50.7319C108.641 51.5603 110.881 52.6415 112.656 53.943C113.462 54.5337 114.193 54.6564 114.828 54.3035C116.383 53.445 117.306 49.9785 117.023 46.064C116.941 44.9402 116.893 43.7539 116.843 42.4999C116.651 37.7169 116.433 32.2957 114.148 29.0745C113.998 28.8643 113.85 28.654 113.702 28.4488C110.962 24.5969 108.784 21.5359 107.608 16.9356C106.056 17.0282 98.6148 17.6364 90.6407 21.0378L90.1702 21.238C81.6203 24.8847 79.6856 25.7107 75.3106 24.3591Z" fill="black"/>
<path d="M94.0579 37.3564C94.0579 37.3564 92.7389 43.4484 91.9355 45.3381C91.1346 47.2278 90.5314 51.2874 95.85 49.4428" fill="white"/>
<path d="M93.5369 50.2772C92.726 50.2772 92.1028 50.047 91.6698 49.584C90.6862 48.5327 91.0165 46.563 91.5972 45.1939C92.3781 43.3593 93.6846 37.3399 93.6971 37.2798C93.7397 37.0821 93.9349 36.957 94.1326 36.9995C94.3328 37.0421 94.458 37.2373 94.4154 37.435C94.3604 37.6853 93.0789 43.5821 92.273 45.4817C91.7549 46.6981 91.5146 48.345 92.2054 49.0834C92.7761 49.6941 93.9924 49.6966 95.7269 49.0959C95.9197 49.0283 96.1299 49.1309 96.195 49.3211C96.26 49.5139 96.1599 49.7216 95.9672 49.7892C95.0311 50.1146 94.2202 50.2772 93.5369 50.2772Z" fill="black"/>
<path d="M95.8063 59.8647C93.764 59.8647 91.7116 59.1564 90.1273 57.875C89.9696 57.7473 89.9471 57.5145 90.0748 57.3594C90.2024 57.2017 90.4327 57.1767 90.5903 57.3043C92.3399 58.7234 94.7151 59.3742 96.9451 59.0488C99.1752 58.7234 101.265 57.4169 102.534 55.5573C102.649 55.3896 102.877 55.3471 103.045 55.4622C103.212 55.5748 103.255 55.8051 103.14 55.9703C101.756 57.9976 99.4805 59.4192 97.0528 59.7746C96.6398 59.8347 96.2218 59.8647 95.8063 59.8647Z" fill="white"/>
<path d="M73.0176 42.9878C72.935 42.9878 72.8499 42.9578 72.7798 42.9002C72.6247 42.7701 72.6071 42.5373 72.7373 42.3821L78.609 35.4141C78.7417 35.2589 78.972 35.2389 79.1271 35.3691C79.2823 35.4992 79.3023 35.732 79.1722 35.8872L73.2979 42.8577C73.2254 42.9428 73.1227 42.9878 73.0176 42.9878Z" fill="black"/>
<path d="M85.1002 44.7454C81.3034 44.7454 78.2148 41.6569 78.2148 37.86C78.2148 34.0632 81.3034 30.9746 85.1002 30.9746C88.8971 30.9746 91.9856 34.0632 91.9856 37.86C91.9881 41.6544 88.8971 44.7454 85.1002 44.7454ZM85.1002 31.708C81.7089 31.708 78.9482 34.4661 78.9482 37.86C78.9482 41.2514 81.7089 44.0121 85.1002 44.0121C88.4941 44.0121 91.2523 41.2514 91.2523 37.86C91.2523 34.4661 88.4941 31.708 85.1002 31.708Z" fill="black"/>
<path d="M117.177 41.9844C117.076 41.9844 116.979 41.9444 116.906 41.8668L110.867 35.2968C110.729 35.1491 110.739 34.9163 110.887 34.7787C111.037 34.641 111.27 34.651 111.405 34.8012L117.447 41.3687C117.585 41.5189 117.575 41.7517 117.424 41.8868C117.354 41.9519 117.264 41.9844 117.177 41.9844Z" fill="black"/>
<path d="M105.253 44.7454C101.456 44.7454 98.3672 41.6569 98.3672 37.86C98.3672 34.0632 101.456 30.9746 105.253 30.9746C109.049 30.9746 112.138 34.0632 112.138 37.86C112.138 41.6544 109.049 44.7454 105.253 44.7454ZM105.253 31.708C101.859 31.708 99.1005 34.4661 99.1005 37.86C99.1005 41.2514 101.859 44.0121 105.253 44.0121C108.644 44.0121 111.405 41.2514 111.405 37.86C111.405 34.4661 108.644 31.708 105.253 31.708Z" fill="black"/>
<path d="M99.1405 36.0173C99.0755 36.0173 99.0079 35.9997 98.9478 35.9647C97.2108 34.8985 95.4213 34.5706 93.6342 34.9836C92.2902 35.2964 91.4442 35.9347 91.4367 35.9422C91.2765 36.0648 91.0463 36.0348 90.9211 35.8746C90.7985 35.7144 90.8285 35.4842 90.9887 35.3615C91.0262 35.3315 91.9423 34.6307 93.4315 34.2778C94.8031 33.9524 96.9405 33.8723 99.3308 35.339C99.5035 35.4441 99.5585 35.6694 99.4534 35.8421C99.3833 35.9547 99.2632 36.0173 99.1405 36.0173Z" fill="black"/>
<path d="M88.4801 34.826C88.4801 34.9962 88.4475 35.1588 88.3824 35.3165C88.3174 35.4742 88.2248 35.6119 88.1046 35.7345C87.9845 35.8546 87.8443 35.9473 87.6866 36.0123C87.529 36.0774 87.3663 36.1099 87.1961 36.1099C87.0259 36.1099 86.8607 36.0774 86.7055 36.0123C86.5478 35.9473 86.4077 35.8546 86.2875 35.7345C86.1674 35.6119 86.0748 35.4742 86.0097 35.3165C85.9446 35.1588 85.9121 34.9962 85.9121 34.826C85.9121 34.6558 85.9446 34.4906 86.0097 34.3329C86.0748 34.1777 86.1674 34.0376 86.2875 33.9174C86.4077 33.7973 86.5478 33.7047 86.7055 33.6396C86.8607 33.5745 87.0259 33.542 87.1961 33.542C87.3663 33.542 87.529 33.5745 87.6866 33.6396C87.8443 33.7047 87.9845 33.7973 88.1046 33.9174C88.2248 34.0376 88.3174 34.1777 88.3824 34.3329C88.4475 34.4906 88.4801 34.6558 88.4801 34.826Z" fill="black"/>
<path d="M87.1968 36.4761C86.2858 36.4761 85.5449 35.7352 85.5449 34.8267C85.5449 33.9157 86.2858 33.1748 87.1968 33.1748C88.1079 33.1748 88.8487 33.9157 88.8487 34.8267C88.8487 35.7352 88.1079 36.4761 87.1968 36.4761ZM87.1968 33.9081C86.6912 33.9081 86.2808 34.3211 86.2808 34.8267C86.2808 35.3298 86.6912 35.7428 87.1968 35.7428C87.7024 35.7428 88.1129 35.3298 88.1129 34.8267C88.1129 34.3211 87.7024 33.9081 87.1968 33.9081Z" fill="black"/>
<path d="M108.607 34.826C108.607 34.9962 108.574 35.1588 108.509 35.3165C108.444 35.4742 108.352 35.6119 108.232 35.7345C108.111 35.8546 107.974 35.9473 107.816 36.0123C107.658 36.0774 107.493 36.1099 107.323 36.1099C107.153 36.1099 106.99 36.0774 106.832 36.0123C106.675 35.9473 106.537 35.8546 106.417 35.7345C106.297 35.6119 106.202 35.4742 106.137 35.3165C106.072 35.1588 106.039 34.9962 106.039 34.826C106.039 34.6558 106.072 34.4906 106.137 34.3329C106.202 34.1777 106.297 34.0376 106.417 33.9174C106.537 33.7973 106.675 33.7047 106.832 33.6396C106.99 33.5745 107.153 33.542 107.323 33.542C107.493 33.542 107.658 33.5745 107.816 33.6396C107.974 33.7047 108.111 33.7973 108.232 33.9174C108.352 34.0376 108.444 34.1777 108.509 34.3329C108.574 34.4906 108.607 34.6558 108.607 34.826Z" fill="black"/>
<path d="M107.323 36.4761C106.415 36.4761 105.674 35.7352 105.674 34.8267C105.674 33.9157 106.415 33.1748 107.323 33.1748C108.234 33.1748 108.975 33.9157 108.975 34.8267C108.975 35.7352 108.234 36.4761 107.323 36.4761ZM107.323 33.9081C106.82 33.9081 106.407 34.3211 106.407 34.8267C106.407 35.3298 106.82 35.7428 107.323 35.7428C107.829 35.7428 108.242 35.3298 108.242 34.8267C108.242 34.3211 107.829 33.9081 107.323 33.9081Z" fill="black"/>
<path d="M76.682 34.8136C76.5994 34.8136 76.5168 34.7861 76.4492 34.7285C76.2941 34.6009 76.2715 34.3706 76.3992 34.2129C76.4442 34.1579 77.5205 32.8689 79.733 31.5724C81.7628 30.381 85.1818 28.9619 89.9272 28.9619C90.1299 28.9619 90.2951 29.1271 90.2951 29.3298C90.2951 29.5301 90.1299 29.6953 89.9272 29.6953C81.1722 29.6953 77.0074 34.6284 76.9648 34.6785C76.8922 34.7686 76.7871 34.8136 76.682 34.8136Z" fill="black"/>
<path d="M112.894 32.7038C112.802 32.7038 112.709 32.6688 112.639 32.5987C112.626 32.5862 111.453 31.4549 109.223 30.4512C107.168 29.5252 103.764 28.524 99.2236 29.0021C99.0209 29.0221 98.8407 28.8769 98.8206 28.6767C98.7981 28.474 98.9458 28.2938 99.146 28.2712C103.869 27.7732 107.415 28.8269 109.558 29.798C111.896 30.8542 113.102 32.0256 113.152 32.0756C113.297 32.2158 113.297 32.4485 113.157 32.5937C113.084 32.6663 112.989 32.7038 112.894 32.7038Z" fill="black"/>
<path d="M179.506 159.399C171.704 113.336 166.551 109.096 160.862 104.857C155.115 100.574 116.541 90.6729 116.541 90.6729H80.5097C80.5097 90.6729 41.9354 100.574 36.1888 104.857C30.4998 109.096 25.3489 113.336 17.5449 159.399H179.506Z" fill="#F3B64C"/>
<path d="M17.5441 159.772C25.3956 113.454 30.5641 109.6 36.0353 105.523C41.5692 101.4 78.6668 91.8045 80.1835 91.414H116.12C117.636 91.8045 154.734 101.398 160.268 105.523C165.739 109.6 170.908 113.454 178.759 159.772H179.502C175.956 138.821 172.755 125.178 169.446 116.901C166.34 109.134 163.477 106.999 160.706 104.937C154.969 100.66 117.837 91.0986 116.257 90.6932C116.227 90.6857 116.197 90.6807 116.167 90.6807H80.1359C80.1059 90.6807 80.0759 90.6857 80.0458 90.6932C78.4665 91.0961 41.3339 100.66 35.5973 104.937C32.8267 106.999 29.9634 109.134 26.8573 116.901C23.5485 125.178 20.3448 138.821 16.8008 159.772H17.5441Z" fill="black"/>
<path d="M39.8325 159.399H40.5658C40.283 152.215 39.6348 142.602 39.1242 135.599C38.6686 129.357 38.2857 124.674 38.2807 124.629C38.2657 124.426 38.088 124.276 37.8852 124.293C37.685 124.308 37.5348 124.486 37.5499 124.689C37.5549 124.734 37.9378 129.414 38.3933 135.651C38.9014 142.639 39.5497 152.228 39.8325 159.399Z" fill="black"/>
<path d="M157.575 159.399H158.311C158.571 144.184 157.903 121.933 157.896 121.703C157.888 121.5 157.721 121.343 157.518 121.348C157.315 121.355 157.155 121.523 157.162 121.726C157.17 121.956 157.836 144.201 157.575 159.399Z" fill="black"/>
<path d="M38.759 135.992C38.7064 135.992 38.6538 135.982 38.6038 135.959C38.4336 135.882 34.4065 133.985 32.4993 129.898C32.4142 129.712 32.4918 129.495 32.677 129.409C32.8597 129.324 33.0774 129.402 33.165 129.587C34.9546 133.424 38.8716 135.274 38.9116 135.291C39.0944 135.376 39.1769 135.594 39.0918 135.779C39.0293 135.914 38.8966 135.992 38.759 135.992Z" fill="black"/>
<path d="M96.7353 103.998C99.8714 104.028 103.008 103.868 106.003 103.468C111.089 102.787 116.586 101.007 120.052 97.0304C121.857 94.9555 117.709 92.4802 118.112 89.2039C118.513 85.9251 116.773 80.3062 113.026 84.3208C110.811 86.6935 106.832 87.2692 103.783 87.6596C99.3007 88.2353 94.693 88.2478 90.2028 87.7222C87.0142 87.3468 82.7843 86.8061 80.4641 84.3208C76.7173 80.3062 74.9778 85.9251 75.3783 89.2039C75.7813 92.4802 71.6315 94.9555 73.4386 97.0304C76.9726 101.088 82.2011 102.762 87.3921 103.385C90.4131 103.746 93.5742 103.968 96.7353 103.998Z" fill="#F3B64C"/>
<path d="M97.4688 104.369C97.2236 104.369 96.9783 104.369 96.7305 104.366C93.6795 104.336 90.5209 104.128 87.3497 103.748C84.4464 103.4 81.8559 102.757 79.6534 101.833C77.0254 100.734 74.8404 99.1977 73.161 97.2705C72.0272 95.9665 72.8831 94.5248 73.7141 93.1307C74.4374 91.9143 75.1858 90.6554 75.0131 89.2463C74.7478 87.0763 75.366 83.6123 77.2131 82.7488C77.9414 82.4109 79.1403 82.3634 80.7296 84.0678C83.0072 86.5081 87.3622 87.0187 90.2456 87.3541C94.7582 87.8847 99.2984 87.8647 103.736 87.294C106.454 86.9461 110.564 86.4205 112.759 84.0678C114.348 82.3634 115.55 82.4109 116.275 82.7488C118.125 83.6123 118.741 87.0763 118.475 89.2463C118.303 90.6554 119.051 91.9143 119.774 93.1307C120.605 94.5248 121.464 95.9665 120.328 97.2705C116.538 101.62 110.474 103.24 106.051 103.83C103.386 104.188 100.502 104.369 97.4688 104.369ZM78.0691 83.2944C77.8789 83.2944 77.6962 83.3345 77.5235 83.4146C76.1794 84.0428 75.4736 86.9662 75.7414 89.1587C75.9466 90.8181 75.0957 92.2447 74.3448 93.5062C73.4663 94.9803 72.9657 95.9289 73.7141 96.7899C76.715 100.234 81.2027 102.271 87.4348 103.02C90.5809 103.398 93.712 103.603 96.738 103.633C100.007 103.663 103.108 103.485 105.954 103.105C110.251 102.529 116.135 100.967 119.774 96.7899C120.523 95.9289 120.022 94.9803 119.144 93.5062C118.393 92.2447 117.544 90.8181 117.747 89.1587C118.015 86.9662 117.309 84.0428 115.965 83.4146C115.229 83.0717 114.331 83.4596 113.295 84.5684C110.919 87.1138 106.652 87.662 103.829 88.0224C99.331 88.6005 94.7332 88.6206 90.158 88.0849C87.1695 87.7345 82.6543 87.2039 80.194 84.5684C79.4031 83.7199 78.6898 83.2944 78.0691 83.2944Z" fill="black"/>
<path d="M8.63579 161.031C8.59074 164.848 7.54704 164.938 5.41209 165.366C3.11445 165.824 1.38998 163.641 0.586555 160.998C-0.216867 158.358 1.16222 155.6 4.49354 155.6C6.51335 155.6 7.60461 157.257 8.15023 158.561C8.50314 159.404 8.62828 160.102 8.62828 160.102C8.63579 160.435 8.63829 160.743 8.63579 161.031Z" fill="white"/>
<path d="M4.80747 165.794C3.86138 165.794 2.96536 165.391 2.18196 164.605C1.35351 163.779 0.682737 162.57 0.237226 161.106C-0.223302 159.594 -0.00555264 158.025 0.822898 156.906C1.62131 155.828 2.92531 155.234 4.49461 155.234C6.69463 155.234 7.881 156.966 8.48919 158.421C8.85461 159.292 8.98476 160.01 8.98977 160.04C8.99227 160.057 8.99477 160.077 8.99477 160.095C9.00228 160.423 9.00478 160.738 9.00228 161.036C8.97976 162.918 8.71946 164.004 8.12878 164.663C7.54311 165.316 6.71716 165.481 5.67096 165.689L5.48324 165.726C5.25548 165.771 5.03022 165.794 4.80747 165.794ZM4.49461 155.968C3.14556 155.968 2.07934 156.443 1.41358 157.344C0.722783 158.275 0.545079 159.602 0.93803 160.893C1.63133 163.168 3.15057 165.444 5.34058 165.006L5.5308 164.968C6.47688 164.78 7.16267 164.643 7.58315 164.172C8.03868 163.664 8.25142 162.693 8.26894 161.026C8.27144 160.748 8.27144 160.45 8.26394 160.143C8.2364 160.012 8.10876 159.409 7.81342 158.701C7.29032 157.454 6.29167 155.968 4.49461 155.968Z" fill="black"/>
<path d="M14.9241 168.469C14.3159 169.22 13.5225 169.388 12.5914 169.433C10.3514 169.538 8.1113 168.121 8.63691 165.966C8.97479 164.582 8.87718 162.7 8.63691 161.031C8.63941 160.743 8.63691 160.435 8.6294 160.102C8.6294 160.102 8.50425 159.406 8.15135 158.565C8.15135 158.563 8.15135 158.56 8.14885 158.56C7.66829 156.671 6.47693 153.99 10.8094 153.389C12.7967 153.112 14.0957 154.583 14.9216 156.26C15.8977 158.242 16.2106 160.513 16.2106 160.513C16.2607 165.185 15.7801 167.408 14.9241 168.469Z" fill="white"/>
<path d="M12.3604 169.807C10.9463 169.807 9.57971 169.241 8.83135 168.332C8.25069 167.629 8.06047 166.781 8.28072 165.882C8.55604 164.743 8.55353 163.039 8.27321 161.084C8.27071 161.064 8.26821 161.047 8.26821 161.027C8.27071 160.749 8.26821 160.451 8.2607 160.143C8.23567 160.015 8.10802 159.412 7.81268 158.706C7.80768 158.696 7.80518 158.686 7.80267 158.679C7.80017 158.669 7.79767 158.661 7.79266 158.651C7.75011 158.486 7.70506 158.316 7.6525 158.133C7.34214 157.014 6.9542 155.62 7.66502 154.534C8.18812 153.736 9.20178 153.243 10.7586 153.027C12.5832 152.772 14.1349 153.836 15.2487 156.098C16.2424 158.111 16.5602 160.368 16.5727 160.463C16.5752 160.478 16.5752 160.493 16.5752 160.508C16.6228 164.944 16.2023 167.469 15.2087 168.7C14.4878 169.591 13.5342 169.757 12.6082 169.799C12.5256 169.804 12.443 169.807 12.3604 169.807ZM9.00155 161.007C9.20929 162.451 9.37448 164.491 8.99154 166.055C8.82635 166.731 8.964 167.339 9.397 167.864C10.0477 168.655 11.2942 169.128 12.5731 169.068C13.4692 169.023 14.1274 168.871 14.6355 168.24C15.5015 167.166 15.8844 164.721 15.8419 160.541C15.8069 160.308 15.479 158.226 14.5905 156.421C13.6168 154.442 12.3604 153.545 10.8587 153.753C9.54217 153.936 8.67367 154.334 8.28072 154.937C7.75011 155.746 8.07298 156.909 8.36081 157.938C8.40837 158.113 8.45592 158.281 8.49847 158.446C8.85638 159.307 8.98403 160.01 8.98903 160.04C8.99154 160.058 8.99404 160.075 8.99404 160.096C9.00155 160.411 9.00405 160.719 9.00155 161.007Z" fill="black"/>
<path d="M8.6379 161.031C8.50275 160.102 8.32504 159.239 8.15234 158.566C8.15234 158.563 8.15234 158.563 8.15234 158.561C8.50525 159.407 8.63039 160.102 8.63039 160.102C8.6379 160.435 8.6404 160.743 8.6379 161.031Z" fill="white"/>
<path d="M8.63712 161.399C8.45441 161.399 8.29924 161.266 8.27421 161.084C8.15407 160.258 7.98638 159.402 7.79866 158.666C7.7461 158.493 7.8312 158.303 7.99889 158.225C8.1791 158.145 8.39434 158.22 8.47944 158.4C8.48445 158.405 8.48695 158.413 8.48945 158.421C8.85487 159.292 8.98502 160.01 8.99003 160.04C8.99253 160.057 8.99503 160.077 8.99503 160.095C9.00254 160.423 9.00505 160.738 9.00254 161.036C9.00004 161.226 8.85237 161.384 8.65965 161.396C8.65214 161.396 8.64463 161.399 8.63712 161.399Z" fill="black"/>
<path d="M22.8159 160.513C22.5932 162.986 22.2528 164.776 21.7247 166.152V166.155C21.0789 167.832 20.1529 168.898 18.8113 169.846C16.4261 171.531 14.9869 168.6 14.9244 168.47C15.7804 167.409 16.2609 165.186 16.2109 160.516C16.2109 160.516 15.898 158.246 14.9219 156.261C15.1772 151.913 15.6577 150.807 19.1117 150.547C20.6109 150.434 21.5069 152.294 22.04 154.434C22.7358 157.232 22.8159 160.513 22.8159 160.513Z" fill="white"/>
<path d="M17.3688 170.734C17.1736 170.734 16.9808 170.709 16.7881 170.659C15.419 170.301 14.6732 168.797 14.5906 168.627C14.5305 168.499 14.548 168.349 14.6381 168.239C15.5016 167.168 15.8871 164.72 15.842 160.543C15.8095 160.307 15.4791 158.225 14.5906 156.423C14.5631 156.365 14.5505 156.303 14.553 156.238C14.6857 153.985 14.8784 152.589 15.5116 151.663C16.24 150.599 17.4664 150.301 19.0832 150.181C20.5649 150.071 21.6762 151.47 22.3945 154.343C23.0928 157.149 23.1779 160.37 23.1804 160.505C23.1804 160.518 23.1804 160.533 23.1804 160.545C22.9527 163.066 22.5998 164.885 22.0692 166.272C22.0692 166.277 22.0667 166.279 22.0667 166.284C21.4334 167.931 20.5224 169.085 19.0207 170.144C18.4675 170.537 17.9119 170.734 17.3688 170.734ZM15.3565 168.499C15.5792 168.882 16.1524 169.733 16.9733 169.949C17.4839 170.081 18.0295 169.946 18.5977 169.546C19.9693 168.577 20.8002 167.526 21.3759 166.034C21.3784 166.029 21.3784 166.024 21.3809 166.019C21.889 164.702 22.2269 162.948 22.4471 160.5C22.4396 160.222 22.332 157.131 21.6837 154.521C21.2582 152.819 20.4723 150.812 19.1383 150.912C16.0748 151.142 15.5542 151.835 15.2939 156.185C16.25 158.175 16.5604 160.37 16.5729 160.463C16.5754 160.478 16.5754 160.495 16.5754 160.51C16.6229 164.715 16.2425 167.205 15.3565 168.499Z" fill="black"/>
<path d="M28.7877 160.828C28.635 162.298 28.5975 164.798 28.1745 166.83C27.8066 168.605 27.1458 170.021 25.8594 170.074C23.6018 170.169 22.075 169.03 21.7246 166.152C22.2527 164.775 22.5931 162.986 22.8159 160.513C22.8159 160.513 22.7358 157.229 22.04 154.431C22.7883 153.112 23.9872 151.811 25.8018 151.811C27.9518 151.811 28.7076 153.951 28.9053 156.278C29.048 157.933 28.9078 159.682 28.7877 160.828Z" fill="white"/>
<path d="M25.6078 170.447C23.165 170.447 21.6984 168.983 21.358 166.199C21.358 166.184 21.3555 166.169 21.3555 166.154C21.3555 166.109 21.363 166.064 21.3805 166.022C21.8886 164.703 22.2265 162.948 22.4467 160.503C22.4392 160.222 22.3316 157.134 21.6833 154.521C21.6608 154.431 21.6733 154.333 21.7184 154.251C22.7621 152.413 24.1737 151.442 25.8006 151.442C27.1972 151.442 28.9317 152.276 29.2695 156.248C29.3797 157.534 29.3421 159.044 29.1519 160.866C29.1069 161.309 29.0693 161.864 29.0318 162.45C28.9417 163.797 28.8315 165.471 28.5337 166.903C28.0507 169.23 27.1822 170.387 25.8757 170.442C25.783 170.444 25.6954 170.447 25.6078 170.447ZM22.0988 166.197C22.4242 168.652 23.6506 169.798 25.8431 169.708C26.7642 169.668 27.4099 168.705 27.8154 166.755C28.1007 165.371 28.2108 163.724 28.2984 162.402C28.3385 161.809 28.376 161.246 28.4236 160.791C28.6063 159.016 28.6438 157.549 28.5387 156.31C28.3034 153.567 27.3849 152.178 25.8006 152.178C24.469 152.178 23.3352 152.954 22.4292 154.488C23.095 157.259 23.1776 160.373 23.1801 160.505C23.1801 160.518 23.1801 160.533 23.1801 160.548C22.9573 163.021 22.6119 164.82 22.0988 166.197Z" fill="black"/>
<path d="M31.1442 167.605C29.9428 167.565 28.9492 167.257 28.1758 166.829C28.5988 164.797 28.6363 162.299 28.789 160.828C28.9091 159.684 29.0493 157.934 28.9066 156.28C29.5198 155.461 30.4033 154.811 31.6623 154.856C34.936 154.968 35.1638 158.019 35.2814 160.945C35.3941 163.871 34.5906 167.718 31.1442 167.605Z" fill="white"/>
<path d="M31.2928 167.974C31.2402 167.974 31.1852 167.974 31.1326 167.972C29.9638 167.934 28.91 167.656 27.9965 167.151C27.8563 167.073 27.7838 166.913 27.8163 166.755C28.1016 165.371 28.2117 163.727 28.2993 162.403C28.3394 161.81 28.3769 161.249 28.4245 160.791C28.6097 159.016 28.6472 157.55 28.5396 156.313C28.5321 156.223 28.5571 156.133 28.6122 156.061C29.4256 154.974 30.4543 154.446 31.6732 154.489C35.3975 154.619 35.5427 158.268 35.6478 160.931C35.6953 162.173 35.6303 165.236 33.9709 166.903C33.2625 167.614 32.364 167.974 31.2928 167.974ZM31.1551 167.238C32.0837 167.268 32.8571 166.983 33.4503 166.385C34.9044 164.923 34.957 162.105 34.9119 160.959C34.7868 157.767 34.4664 155.32 31.6482 155.222C30.7246 155.19 29.9287 155.582 29.283 156.391C29.3781 157.647 29.3355 159.112 29.1528 160.866C29.1078 161.309 29.0702 161.865 29.0302 162.45C28.9476 163.712 28.845 165.264 28.5872 166.633C29.343 167.003 30.204 167.206 31.1551 167.238Z" fill="black"/>
<mask id="mask0_23423_3481" style="mask-type:luminance" maskUnits="userSpaceOnUse" x="183" y="154" width="9" height="12">
<path d="M183.062 154.962H192V165.214H183.062V154.962Z" fill="white"/>
</mask>
<g mask="url(#mask0_23423_3481)">
<path d="M183.134 160.433C183.179 164.25 184.223 164.34 186.357 164.768C188.655 165.226 190.377 163.044 191.183 160.403C191.986 157.76 190.607 155.002 187.276 155.002C185.256 155.002 184.165 156.659 183.619 157.963C183.266 158.809 183.141 159.505 183.141 159.505C183.134 159.838 183.131 160.145 183.134 160.433Z" fill="white"/>
</g>
<mask id="mask1_23423_3481" style="mask-type:luminance" maskUnits="userSpaceOnUse" x="182" y="154" width="10" height="12">
<path d="M182.418 154.32H191.996V165.213H182.418V154.32Z" fill="white"/>
</mask>
<g mask="url(#mask1_23423_3481)">
<path d="M186.963 165.196C186.74 165.196 186.515 165.173 186.285 165.126L186.097 165.088C185.051 164.881 184.225 164.718 183.642 164.065C183.051 163.404 182.788 162.32 182.768 160.435C182.763 160.14 182.766 159.822 182.773 159.494C182.776 159.477 182.776 159.457 182.781 159.439C182.786 159.409 182.916 158.693 183.281 157.82C183.89 156.366 185.076 154.634 187.276 154.634C188.843 154.634 190.147 155.229 190.948 156.308C191.774 157.424 191.994 158.994 191.533 160.508C191.088 161.97 190.417 163.179 189.589 164.005C188.805 164.793 187.907 165.196 186.963 165.196ZM183.502 160.428C183.519 162.095 183.732 163.066 184.187 163.577C184.608 164.045 185.294 164.182 186.24 164.37L186.43 164.408C188.617 164.846 190.139 162.57 190.83 160.295C191.223 159.004 191.048 157.677 190.357 156.746C189.689 155.845 188.625 155.37 187.276 155.37C185.479 155.37 184.48 156.856 183.957 158.105C183.662 158.811 183.532 159.414 183.507 159.544C183.499 159.852 183.499 160.15 183.502 160.428Z" fill="black"/>
</g>
<path d="M176.847 167.872C177.455 168.625 178.248 168.791 179.179 168.836C181.419 168.941 183.659 167.524 183.134 165.372C182.796 163.985 182.894 162.105 183.134 160.433C183.131 160.146 183.134 159.838 183.141 159.505C183.141 159.505 183.267 158.812 183.619 157.968C183.619 157.966 183.619 157.966 183.619 157.963C184.102 156.073 185.294 153.395 180.959 152.792C178.974 152.517 177.675 153.986 176.849 155.663C175.873 157.645 175.56 159.915 175.56 159.915C175.51 164.588 175.991 166.811 176.847 167.872Z" fill="white"/>
<path d="M179.41 169.208C179.327 169.208 179.245 169.206 179.162 169.201C178.236 169.158 177.283 168.996 176.562 168.102C175.568 166.871 175.148 164.345 175.193 159.913C175.193 159.898 175.195 159.883 175.198 159.865C175.21 159.77 175.528 157.515 176.522 155.5C177.636 153.238 179.187 152.176 181.012 152.429C182.569 152.647 183.582 153.137 184.105 153.936C184.816 155.025 184.428 156.419 184.118 157.538C184.065 157.718 184.02 157.888 183.975 158.056C183.973 158.063 183.97 158.073 183.968 158.081C183.965 158.091 183.963 158.101 183.958 158.111C183.662 158.814 183.535 159.417 183.51 159.545C183.502 159.853 183.5 160.151 183.502 160.431C183.502 160.448 183.5 160.468 183.497 160.486C183.214 162.441 183.212 164.145 183.49 165.284C183.71 166.182 183.52 167.031 182.939 167.734C182.191 168.643 180.824 169.208 179.41 169.208ZM175.929 159.945C175.884 164.123 176.266 166.57 177.132 167.642C177.643 168.272 178.301 168.428 179.197 168.47C180.476 168.53 181.723 168.057 182.373 167.266C182.806 166.743 182.942 166.132 182.776 165.457C182.396 163.892 182.561 161.855 182.766 160.408C182.764 160.12 182.766 159.815 182.774 159.497C182.776 159.48 182.776 159.46 182.781 159.442C182.786 159.412 182.914 158.709 183.272 157.85C183.315 157.685 183.36 157.517 183.41 157.34C183.695 156.314 184.02 155.147 183.49 154.339C183.094 153.738 182.228 153.34 180.909 153.157C179.408 152.947 178.154 153.846 177.177 155.826C176.291 157.628 175.961 159.71 175.929 159.945Z" fill="black"/>
<path d="M183.134 160.433C183.269 159.505 183.447 158.644 183.619 157.968C183.619 157.965 183.619 157.965 183.619 157.963C183.266 158.809 183.141 159.507 183.141 159.507C183.134 159.838 183.131 160.145 183.134 160.433Z" fill="white"/>
<path d="M183.136 160.801C183.128 160.801 183.121 160.801 183.111 160.799C182.92 160.786 182.77 160.629 182.77 160.438C182.765 160.141 182.768 159.825 182.775 159.497C182.778 159.477 182.778 159.46 182.783 159.442C182.788 159.412 182.918 158.694 183.283 157.82C183.286 157.815 183.288 157.808 183.291 157.803C183.378 157.623 183.591 157.548 183.774 157.628C183.942 157.705 184.027 157.895 183.972 158.068C183.786 158.801 183.619 159.66 183.499 160.486C183.473 160.666 183.318 160.801 183.136 160.801Z" fill="black"/>
<path d="M168.955 159.915C169.178 162.388 169.518 164.177 170.046 165.557C170.692 167.233 171.618 168.3 172.96 169.248C175.345 170.933 176.784 168.002 176.847 167.872C175.991 166.81 175.51 164.588 175.56 159.918C175.56 159.918 175.871 157.647 176.849 155.663C176.594 151.318 176.113 150.209 172.659 149.951C171.16 149.839 170.264 151.696 169.731 153.836C169.035 156.634 168.955 159.915 168.955 159.915Z" fill="white"/>
<path d="M174.401 170.137C173.855 170.137 173.302 169.939 172.746 169.546C171.247 168.487 170.336 167.334 169.703 165.687C169.703 165.682 169.7 165.679 169.7 165.674C169.17 164.288 168.817 162.468 168.589 159.948C168.589 159.935 168.587 159.92 168.589 159.908C168.592 159.77 168.677 156.551 169.375 153.745C170.091 150.872 171.207 149.473 172.686 149.583C174.303 149.703 175.529 150.004 176.255 151.065C176.891 151.991 177.084 153.388 177.214 155.64C177.219 155.705 177.206 155.768 177.179 155.825C176.29 157.627 175.962 159.71 175.927 159.945C175.882 164.125 176.265 166.57 177.131 167.641C177.221 167.752 177.239 167.902 177.179 168.029C177.096 168.2 176.348 169.704 174.981 170.062C174.791 170.112 174.596 170.137 174.401 170.137ZM170.394 165.436C170.969 166.931 171.8 167.979 173.169 168.948C173.737 169.348 174.286 169.486 174.796 169.351C175.617 169.136 176.19 168.287 176.413 167.904C175.524 166.608 175.147 164.12 175.192 159.913C175.192 159.898 175.194 159.882 175.197 159.865C175.209 159.772 175.517 157.58 176.476 155.588C176.213 151.238 175.695 150.544 172.631 150.314C171.295 150.214 170.509 152.221 170.086 153.923C169.435 156.539 169.33 159.625 169.32 159.905C169.543 162.35 169.88 164.105 170.389 165.424C170.391 165.429 170.391 165.431 170.394 165.436Z" fill="black"/>
<path d="M162.984 160.23C163.137 161.699 163.175 164.199 163.598 166.232C163.966 168.006 164.626 169.423 165.913 169.475C168.17 169.57 169.697 168.432 170.048 165.553C169.519 164.177 169.179 162.387 168.956 159.914C168.956 159.914 169.036 156.631 169.732 153.832C168.984 152.513 167.785 151.212 165.97 151.212C163.82 151.212 163.065 153.352 162.867 155.68C162.724 157.334 162.864 159.086 162.984 160.23Z" fill="white"/>
<path d="M166.16 169.848C166.075 169.848 165.987 169.846 165.897 169.843C164.591 169.788 163.72 168.632 163.237 166.307C162.939 164.873 162.829 163.198 162.739 161.854C162.701 161.266 162.663 160.713 162.618 160.267C162.428 158.445 162.391 156.936 162.501 155.65C162.841 151.68 164.573 150.847 165.97 150.847C167.599 150.847 169.011 151.818 170.052 153.655C170.1 153.735 170.112 153.833 170.089 153.923C169.439 156.536 169.331 159.624 169.324 159.905C169.544 162.352 169.884 164.104 170.39 165.423C170.405 165.466 170.415 165.511 170.415 165.556C170.415 165.569 170.415 165.586 170.412 165.601C170.072 168.384 168.603 169.848 166.16 169.848ZM163.347 160.192C163.394 160.648 163.432 161.211 163.472 161.804C163.56 163.126 163.667 164.773 163.955 166.157C164.36 168.104 165.006 169.07 165.927 169.11C168.122 169.2 169.346 168.051 169.672 165.599C169.158 164.222 168.813 162.422 168.59 159.947C168.59 159.935 168.59 159.92 168.59 159.907C168.593 159.774 168.675 156.661 169.341 153.89C168.438 152.356 167.301 151.58 165.97 151.58C164.388 151.58 163.467 152.969 163.232 155.712C163.127 156.951 163.164 158.415 163.347 160.192Z" fill="black"/>
<path d="M160.628 167.008C161.83 166.965 162.823 166.66 163.597 166.232C163.174 164.199 163.136 161.699 162.983 160.23C162.863 159.086 162.723 157.337 162.866 155.682C162.252 154.864 161.369 154.213 160.11 154.258C156.836 154.371 156.606 157.422 156.491 160.348C156.376 163.273 157.182 167.12 160.628 167.008Z" fill="white"/>
<path d="M160.479 167.377C159.408 167.377 158.51 167.016 157.801 166.305C156.144 164.638 156.079 161.575 156.127 160.333C156.232 157.67 156.375 154.021 160.099 153.891C161.318 153.849 162.349 154.377 163.16 155.463C163.215 155.535 163.24 155.626 163.233 155.713C163.125 156.952 163.165 158.419 163.348 160.193C163.395 160.649 163.433 161.212 163.473 161.805C163.56 163.129 163.668 164.774 163.956 166.158C163.988 166.315 163.916 166.475 163.776 166.553C162.865 167.059 161.808 167.334 160.642 167.374C160.587 167.377 160.532 167.377 160.479 167.377ZM160.229 154.622C160.194 154.622 160.159 154.622 160.124 154.624C157.306 154.722 156.985 157.172 156.86 160.363C156.815 161.507 156.868 164.326 158.322 165.787C158.915 166.385 159.688 166.673 160.617 166.641C161.568 166.611 162.429 166.405 163.185 166.035C162.927 164.666 162.825 163.114 162.739 161.855C162.702 161.267 162.664 160.711 162.619 160.268C162.437 158.514 162.394 157.05 162.489 155.796C161.868 155.015 161.11 154.622 160.229 154.622Z" fill="black"/>
<path d="M108.031 14.8754C107.984 14.8754 107.936 14.8529 107.909 14.8079C107.133 13.5739 106.605 12.1623 106.385 10.7232C106.372 10.6431 106.427 10.568 106.507 10.5555C106.585 10.543 106.66 10.598 106.672 10.6781C106.888 12.0772 107.401 13.4513 108.157 14.6502C108.199 14.7203 108.179 14.8104 108.109 14.8529C108.087 14.8679 108.059 14.8754 108.031 14.8754Z" fill="white"/>
<path d="M81.426 18.1291C80.167 18.1291 78.8305 17.9889 77.9194 17.0904C77.8619 17.0353 77.8594 16.9427 77.9169 16.8826C77.9745 16.8251 78.0671 16.8251 78.1247 16.8826C79.0658 17.8062 80.5525 17.8563 81.8715 17.8287C83.3181 17.7987 84.9976 17.7361 86.5944 17.3482C88.439 16.8977 90.171 16.0192 91.8479 15.1707C93.0143 14.5775 94.2232 13.9668 95.4646 13.4988C97.2917 12.8105 98.7258 12.6678 99.9773 13.0558C100.055 13.0783 100.097 13.1609 100.075 13.2385C100.05 13.3161 99.9697 13.3586 99.8897 13.3361C98.7058 12.9707 97.3317 13.1083 95.5697 13.7716C94.3408 14.2346 93.1419 14.8428 91.9806 15.431C90.2886 16.2895 88.5416 17.1755 86.6645 17.6335C85.0376 18.029 83.3407 18.094 81.879 18.1241C81.7288 18.1241 81.5761 18.1291 81.426 18.1291Z" fill="white"/>
<path d="M81.556 12.7952C79.9942 12.7952 78.3323 12.5825 77.1184 11.5263C77.0559 11.4737 77.0484 11.3811 77.1034 11.3185C77.156 11.2585 77.2486 11.251 77.3086 11.3035C78.6202 12.4423 80.5173 12.5424 82.1993 12.4899C86.6143 12.3547 90.5914 11.4412 94.0228 9.77927C94.0954 9.74423 94.183 9.77427 94.2206 9.84685C94.2556 9.91943 94.2231 10.007 94.1505 10.0446C90.6815 11.724 86.6644 12.6451 82.2093 12.7827C81.994 12.7902 81.7763 12.7952 81.556 12.7952Z" fill="white"/>
<path d="M118.232 28.8593C118.232 28.8593 118.23 28.8593 118.227 28.8593C118.147 28.8568 118.085 28.7892 118.087 28.7091C118.172 26.2013 116.683 23.9136 115.377 22.2042C115.114 21.8588 114.838 21.5084 114.571 21.1705C113.337 19.6062 112.063 17.9868 111.402 16.0796C111.377 16.0046 111.417 15.9195 111.492 15.8944C111.57 15.8669 111.652 15.9069 111.68 15.9845C112.323 17.8467 113.582 19.4435 114.801 20.9878C115.069 21.3282 115.344 21.6786 115.609 22.0265C116.946 23.776 118.465 26.1187 118.377 28.7191C118.377 28.7967 118.312 28.8593 118.232 28.8593Z" fill="white"/>
</svg>
